<?xml version="1.0" standalone="no"?>
<!DOCTYPE svg PUBLIC "-//W3C//DTD SVG 20010904//EN"
 "http://www.w3.org/TR/2001/REC-SVG-20010904/DTD/svg10.dtd">
<svg version="1.0" xmlns="http://www.w3.org/2000/svg"
 width="334.000000pt" height="334.000000pt" viewBox="0 0 334.000000 334.000000"
 preserveAspectRatio="xMidYMid meet">
<metadata>
Created by potrace 1.14, written by Peter Selinger 2001-2017
</metadata>
<g transform="translate(0.000000,334.000000) scale(0.100000,-0.100000)"
fill="#000000" stroke="none">
<path d="M1905 3314 c-139 -29 -269 -113 -314 -203 -24 -49 -27 -125 -6 -157
18 -28 20 -23 -38 -88 -10 -12 -30 -45 -44 -75 l-27 -53 -11 38 c-15 51 -48
112 -79 147 -35 38 -38 34 -14 -20 34 -76 45 -132 43 -218 -2 -85 -5 -111 -36
-275 -28 -150 -34 -209 -34 -350 1 -114 4 -148 21 -229 4 -22 1 -19 -21 14
-61 93 -133 262 -149 350 -24 128 -29 175 -30 281 l-1 121 34 32 c31 29 33 35
28 76 -7 46 -24 79 -66 128 -29 32 -41 35 -36 6 2 -12 -3 -38 -11 -58 -26 -61
-22 -106 10 -140 29 -30 30 -44 9 -121 -3 -8 -5 -62 -5 -119 0 -56 -3 -99 -7
-94 -13 18 -83 64 -124 82 -49 21 -104 32 -166 33 -29 0 -44 6 -51 18 -16 30
-93 54 -151 47 -84 -10 -154 -49 -235 -131 -40 -41 -80 -88 -89 -105 l-16 -32
28 7 c45 12 123 7 189 -10 34 -9 78 -16 98 -16 92 0 184 76 200 165 3 15 7 30
10 32 7 8 121 -25 172 -49 60 -28 114 -81 141 -138 11 -25 35 -101 53 -170 17
-69 38 -140 46 -157 8 -18 21 -49 30 -69 l15 -37 -83 6 c-148 9 -255 70 -318
180 l-29 50 23 18 c40 32 50 71 32 126 -9 26 -17 63 -18 81 -1 17 -5 32 -8 32
-8 0 -52 -49 -77 -85 -46 -68 -37 -155 18 -174 16 -5 29 -17 29 -26 0 -32 53
-118 101 -165 l49 -48 -42 -6 c-24 -4 -69 -19 -101 -35 -55 -26 -58 -27 -68
-10 -38 72 -165 45 -233 -48 -52 -71 -71 -148 -71 -278 1 -60 5 -118 11 -128
9 -15 14 -12 43 27 22 29 62 61 123 96 123 73 164 135 156 235 -3 44 -2 44 38
60 43 16 52 19 144 36 80 16 174 4 248 -31 103 -48 239 -201 358 -403 51 -86
124 -256 138 -322 14 -66 17 -81 21 -101 4 -16 -4 -28 -33 -47 -94 -62 -160
-157 -186 -265 -70 -299 193 -569 495 -507 188 39 324 197 334 390 10 186 -91
343 -269 416 -37 15 -40 19 -58 90 -25 94 -84 221 -143 305 -93 134 -109 202
-73 310 65 192 268 288 441 206 34 -16 73 -38 87 -50 24 -19 24 -21 8 -39 -50
-55 -56 -165 -13 -238 14 -25 29 -45 33 -45 18 0 122 -114 142 -155 12 -25 23
-45 25 -45 6 0 44 124 52 165 10 59 7 154 -6 201 -25 93 -107 162 -177 151
-19 -3 -34 -2 -34 3 0 14 -90 97 -122 113 l-31 15 41 21 c23 11 53 33 68 48
28 28 63 97 64 125 0 9 7 21 16 26 27 15 26 75 -2 116 -35 50 -39 46 -60 -65
-2 -9 6 -26 17 -37 19 -21 19 -23 2 -49 -58 -94 -120 -132 -248 -149 -27 -3
-87 -19 -132 -35 -45 -16 -84 -29 -88 -29 -10 0 3 96 21 160 48 168 196 340
366 426 l47 24 16 -29 c28 -54 112 -103 179 -103 56 0 93 11 170 53 52 28 92
41 135 45 33 4 61 10 61 14 0 8 -83 73 -145 113 -99 64 -238 87 -323 52 -49
-20 -92 -66 -92 -99 0 -19 -10 -27 -47 -41 -76 -28 -187 -101 -258 -169 l-65
-64 -1 32 c-5 118 -4 149 7 216 16 94 25 123 57 185 42 80 43 81 62 62 9 -9
33 -22 53 -28 63 -18 115 2 182 72 31 32 72 65 91 73 l34 14 -26 10 c-147 57
-270 46 -333 -28 -14 -18 -26 -44 -26 -58 0 -16 -14 -43 -36 -67 -19 -22 -50
-71 -68 -108 -29 -59 -34 -65 -39 -45 -4 13 -20 44 -37 70 -22 32 -29 53 -25
70 8 32 -30 86 -79 111 -26 14 -63 21 -114 23 l-75 3 27 -28 c14 -15 36 -47
49 -72 36 -72 103 -102 168 -75 13 6 20 -8 37 -66 11 -40 23 -89 26 -108 3
-19 8 -48 11 -65 10 -61 6 -193 -9 -256 -18 -78 -45 -143 -46 -114 -8 128 -61
251 -151 349 -27 30 -49 61 -49 71 0 46 -51 84 -117 86 -61 2 -65 1 -47 -18 8
-10 25 -34 37 -53 28 -43 62 -61 93 -50 21 8 26 2 73 -93 27 -56 57 -133 67
-172 24 -96 24 -258 0 -352 -19 -75 -93 -234 -112 -240 -13 -4 -85 122 -135
238 -97 223 -123 474 -74 714 12 57 73 230 103 290 63 128 62 126 85 118 12
-4 54 -8 92 -7 132 0 208 67 254 220 22 74 60 142 106 187 l28 27 -69 -1 c-38
0 -100 -7 -139 -15z"/>
<path d="M917 3183 l-28 -4 38 -30 c21 -17 55 -56 75 -87 21 -31 48 -73 61
-93 47 -69 157 -96 235 -58 111 55 46 208 -111 259 -50 17 -202 24 -270 13z"/>
</g>
</svg>
