<?xml version="1.0" encoding="UTF-8"?>
<!-- Generator: Adobe Illustrator 16.0.2, SVG Export Plug-In . SVG Version: 6.00 Build 0)  -->
<!DOCTYPE svg PUBLIC "-//W3C//DTD SVG 1.1//EN" "http://www.w3.org/Graphics/SVG/1.1/DTD/svg11.dtd">
<svg version="1.1" id="Layer_1" xmlns="http://www.w3.org/2000/svg" xmlns:xlink="http://www.w3.org/1999/xlink" x="0px" y="0px" width="52.472px" height="64px" viewBox="161.327 163.135 52.472 64" enable-background="new 161.327 163.135 52.472 64" xml:space="preserve">
<g>
	<g>
		<linearGradient id="SVGID_1_" gradientUnits="userSpaceOnUse" x1="161.3269" y1="195.1348" x2="213.7991" y2="195.1348">
			<stop offset="0" style="stop-color:#234930"/>
			<stop offset="1" style="stop-color:#83B645"/>
		</linearGradient>
		<path fill="url(#SVGID_1_)" d="M174.194,163.135c-1.447,0-3.286,0.96-3.411,2.21c-0.035,0.352,1.516,0.704,2.048,1.375    c0.528,0.671,0.245,1.341-0.533,2.012c-0.772,0.67-0.636,2.647,0.426,3.176c1.056,0.528,1.759,1.341,2.185,1.728    c0.42,0.392-0.738,0.886-1.197,1.023c-0.46,0.142-0.176,1.658-0.744,2.119c-0.563,0.46-2.958,3.563-3.594,4.625    c-0.488,0.813-1.311,1.818-2.066,1.818c-0.227,0-0.448-0.092-0.652-0.301c-0.239-0.25-0.443-0.353-0.642-0.353    c-0.516,0-0.937,0.733-1.578,1.375c-0.88,0.88-0.494,1.625,0.318,1.801s0.885,2.573,1.374,3.528    c0.415,0.795,0.136,1.37-0.812,1.37c-0.187,0-0.397-0.018-0.63-0.069c-0.523-0.102-1.073-0.199-1.579-0.199    c-0.897,0-1.635,0.307-1.771,1.438c-0.209,1.761,2.788,1.307,3.139,1.868c0.353,0.563-1.833,0.598-2.151,1.166    c-0.318,0.562,1.13,3.353,3.383,3.602c0.08,0.006,0.159,0.012,0.233,0.012c1.97,0,2.174-2.954,2.685-2.954    c0.011,0,0.028,0.005,0.045,0.011c0.573,0.211,0.351,3.744,0.102,4.938c-0.244,1.198,0,2.085,0.25,4.375    c0.244,2.295,0.284,4.835,1.584,6.921c1.305,2.085,0.67,3.988,1.697,5.573c1.021,1.592,1.34,3.284,1.867,5.722    c0.528,2.432,1.306,4.091,2.606,4.091c1.305,0,3.07-3.033,3.28-3.988c0.209-0.949,2.078-1.375,1.726-2.716s0.778-2.613,1.13-3.568    c0.352-0.948-0.284-2.711-0.352-4.477c-0.068-1.768,0.738-1.802,1.448-1.87c0.704-0.068-0.04-1.272,1.726-1.414    c1.759-0.138,1.232-0.284,1.265-0.95c0.04-0.67,0.886-0.777,2.259-2.227c1.374-1.449,2.327-2.324,2.821-3.387    c0.494-1.056,0.987-0.426,2.078-1.022c1.096-0.602,1.623-2.012,1.657-3.033c0.028-0.848,1.362-1.501,1.821-1.501    c0.097,0,0.154,0.028,0.154,0.091c0,0.233,0.642,0.472,1.174,0.472c0.262,0,0.494-0.057,0.625-0.188    c0.387-0.426,0.176-2.335,0.034-3.108c-0.143-0.777-0.704-1.198-0.528-1.835c0.177-0.637-0.317-0.494-0.987-1.272    c-0.67-0.772,0.42-1.091,0.914-1.482c0.494-0.387-1.13-1.058-0.954-1.938c0.068-0.33,0.216-0.443,0.432-0.443    c0.363,0,0.926,0.335,1.618,0.511c1.09,0.284,0.703,1.131,0.846,1.625c0.091,0.318,1.271,0.404,2.275,0.404    c0.546,0,1.045-0.028,1.284-0.052c0.027-0.006,0.051-0.006,0.073-0.006c0.602,0,0.692,0.807,0.454,1.488    c-0.244,0.705-1.34,0.989-1.517,2.018c-0.102,0.607,0.353,0.949,0.75,0.949c0.278,0,0.522-0.171,0.522-0.535    c0-0.511,0.221-0.795,0.42-0.795c0.142,0,0.267,0.153,0.284,0.478c0.033,0.722,0.306,2.869,0.965,2.869    c0.051,0,0.108-0.017,0.164-0.045c0.778-0.387-0.107-1.165,0.454-2.574c0.511-1.268,0.136-1.71,0.692-1.71    c0.063,0,0.137,0.005,0.228,0.017c0.079,0.006,0.153,0.011,0.221,0.011c0.676,0,0.778-0.482,1.227-1.636    c0.494-1.272,0.987-4.801,2.186-5.574c1.197-0.778,1.583-1.023,2.077-2.085c0.494-1.057-1.617-0.495-1.515-1.62    c0.073-0.801-1.187-1.085-2.197-1.085c-0.42,0-0.795,0.052-1.01,0.131c-0.738,0.284-2.891,3.67-4.201,3.67    c-1.312,0-0.415,0.881-0.063,1.551c0.353,0.67-0.778,0.494-2.504,0.778c-0.646,0.108-1.242,0.182-1.73,0.182    c-0.812,0-1.34-0.216-1.34-0.852c0-1.023-0.244-2.012-0.947-2.012c-0.704,0-0.393,2.08-0.393,2.648    c0,0.528-0.754,0.813-2.23,0.813c-0.091,0-0.176,0-0.272,0c-1.584-0.035-3.838-2.063-5.233-2.063    c-0.068,0-0.131,0.005-0.193,0.011c-0.062,0.012-0.119,0.018-0.188,0.018c-1.493,0-4.904-2.205-6.05-3.051    c-1.204-0.882,0.982-2.08,1.089-3.068c0.103-0.989-3.984-1.341-3.701-2.79c0.262-1.353-0.794-2.704-0.618-2.704    c0.011,0,0.028,0.011,0.057,0.022c0.233,0.131,0.795,0.37,1.283,0.37c0.312,0,0.596-0.097,0.76-0.37    c0.42-0.705-1.237-2.08-0.073-3.137c1.164-1.062,1.799-3.636,0.602-3.988c-0.159-0.051-0.324-0.068-0.488-0.068    c-1.061,0-2.168,0.847-2.929,0.88c-0.005,0-0.011,0-0.016,0c-0.892,0-3.378-3.392-4.854-3.71    C174.586,163.152,174.393,163.135,174.194,163.135z M210.012,181.232c0.397,0,0.704,0.056,0.897,0.113    c0.073,0.648,0.453,1.147,1.141,1.489c-0.222,0.21-0.539,0.415-1.113,0.79c-1.276,0.824-1.815,2.927-2.292,4.785    c-0.148,0.573-0.284,1.113-0.403,1.414l-0.137,0.364c-0.052,0.136-0.114,0.284-0.165,0.415c-0.051-0.007-0.102-0.007-0.153-0.007    c-0.488,0-1.061,0.148-1.407,0.762c0.205-0.807,0.097-1.591-0.296-2.143c-0.34-0.482-0.885-0.761-1.48-0.761    c-0.074,0-0.142,0.006-0.217,0.012c-0.164,0.017-0.601,0.045-1.146,0.045c-0.442,0-0.783-0.018-1.032-0.04    c-0.04-0.307-0.131-0.682-0.363-1.028c0.182-0.028,0.386-0.056,0.596-0.096c0.46-0.074,0.875-0.113,1.243-0.148    c0.971-0.096,1.806-0.176,2.242-0.983c0.142-0.262,0.324-0.795,0-1.472c0.959-0.488,1.856-1.511,2.725-2.512    c0.295-0.334,0.687-0.783,0.885-0.965C209.625,181.254,209.791,181.232,210.012,181.232 M174.194,164.442    c0.113,0,0.216,0.012,0.301,0.028c0.437,0.103,1.572,1.204,2.179,1.795c1.204,1.166,1.998,1.938,2.947,1.938h0.062    c0.584-0.023,1.136-0.262,1.664-0.489c0.351-0.154,0.743-0.323,1.044-0.375c-0.034,0.478-0.335,1.33-0.812,1.767    c-1.045,0.949-0.92,2.08-0.676,2.87c-0.159-0.057-0.317-0.091-0.477-0.091l-0.744,0.011l-0.38,0.614    c-0.403,0.643-0.113,1.233,0.057,1.591c0.176,0.364,0.505,1.034,0.403,1.546c-0.363,1.864,1.668,2.671,2.884,3.147    c0.13,0.052,0.283,0.115,0.431,0.177c-0.018,0.022-0.035,0.039-0.051,0.062c-0.511,0.608-1.141,1.364-1.022,2.348    c0.045,0.391,0.239,0.959,0.875,1.426c0.045,0.034,4.519,3.301,6.828,3.301c0.131,0,0.262-0.006,0.381-0.023    c0.353,0,1.26,0.495,1.861,0.824c1.091,0.596,2.22,1.21,3.344,1.233c0.103,0.006,0.205,0.006,0.301,0.006    c0.437,0,0.829-0.028,1.169-0.074c0.051,0.478,0.272,0.875,0.512,1.199c-0.307,0.267-0.579,0.631-0.659,1.137    c-0.068,0.38-0.028,0.971,0.506,1.585c0.227,0.272,0.448,0.466,0.635,0.607c-0.016,0.597,0.222,1.068,0.393,1.409    c0.096,0.188,0.17,0.336,0.193,0.467c0.079,0.46,0.136,1.011,0.158,1.454c-0.232-0.159-0.522-0.256-0.863-0.256    c-1.038,0-3.064,1.073-3.128,2.762c-0.022,0.698-0.391,1.613-0.98,1.932c-0.217,0.124-0.364,0.142-0.597,0.164    c-0.499,0.058-1.436,0.165-2.038,1.455c-0.317,0.688-0.999,1.392-1.935,2.364c-0.205,0.209-0.421,0.438-0.647,0.676    c-0.54,0.567-0.982,0.892-1.334,1.158c-0.494,0.364-1.09,0.807-1.243,1.608c-0.035,0-0.068,0.006-0.103,0.006    c-1.562,0.125-2.118,0.926-2.35,1.494c-0.852,0.183-2.117,0.789-2.026,3.143c0.028,0.789,0.159,1.551,0.272,2.221    c0.096,0.598,0.25,1.501,0.159,1.757c-0.063,0.176-0.205,0.431-0.352,0.704c-0.5,0.908-1.181,2.147-0.824,3.597    c-0.09,0.118-0.317,0.307-0.464,0.426c-0.483,0.403-1.08,0.897-1.261,1.722c-0.159,0.699-1.413,2.665-2.048,2.96    c-0.216-0.079-0.784-0.728-1.294-3.063l-0.096-0.46c-0.483-2.239-0.863-4-1.947-5.682c-0.33-0.506-0.415-1.131-0.523-1.909    c-0.142-1.035-0.323-2.318-1.163-3.653c-0.943-1.506-1.118-3.427-1.289-5.29c-0.034-0.363-0.068-0.722-0.108-1.074    c-0.063-0.584-0.125-1.085-0.182-1.517c-0.159-1.262-0.216-1.796-0.079-2.454c0.147-0.733,0.26-2,0.277-3.086    c0.023-1.778-0.17-2.954-1.204-3.341c-0.164-0.062-0.335-0.097-0.504-0.097c-1.05,0-1.442,0.961-1.698,1.592    c-0.363,0.886-0.625,1.363-0.987,1.363c-0.029,0-0.057,0-0.091-0.006c-0.914-0.097-1.664-0.955-2.027-1.579    c0.017,0,0.028-0.007,0.04-0.007c0.721-0.198,1.539-0.42,1.856-1.227c0.17-0.443,0.119-0.932-0.136-1.347    c-0.438-0.693-1.214-0.824-1.97-0.949c-0.261-0.045-0.709-0.119-0.954-0.21c0.012-0.052,0.022-0.085,0.022-0.085    s0.097-0.063,0.426-0.063c0.403,0,0.897,0.091,1.329,0.176c0.313,0.063,0.607,0.091,0.88,0.091c1.231,0,1.799-0.624,2.026-0.994    c0.227-0.375,0.523-1.176-0.051-2.284c-0.108-0.21-0.227-0.745-0.323-1.181c-0.244-1.085-0.517-2.302-1.413-2.824    c0.142-0.148,0.272-0.302,0.386-0.438c0.034-0.04,0.068-0.075,0.108-0.12c0.374,0.273,0.8,0.42,1.26,0.42    c1.493,0,2.64-1.54,3.19-2.455c0.602-1.011,2.855-3.897,3.298-4.278c0.698-0.574,0.806-1.443,0.885-2.08    c0-0.005,0-0.012,0.005-0.018c0.71-0.307,1.414-0.79,1.584-1.545c0.119-0.54-0.056-1.09-0.477-1.477    c-0.074-0.068-0.153-0.148-0.244-0.233c-0.477-0.471-1.204-1.182-2.237-1.698c-0.181-0.131-0.272-0.813-0.136-1.046    c2.015-1.761,1.027-3.341,0.675-3.79c-0.34-0.432-0.817-0.727-1.272-0.966C172.985,164.681,173.592,164.442,174.194,164.442"/>
	</g>
</g>
<g>
	<g>
		<linearGradient id="SVGID_2_" gradientUnits="userSpaceOnUse" x1="179.5242" y1="184.5459" x2="195.5579" y2="184.5459">
			<stop offset="0" style="stop-color:#234930"/>
			<stop offset="1" style="stop-color:#83B645"/>
		</linearGradient>
		<path fill="url(#SVGID_2_)" d="M187.541,195.196l6.657-12.476c0.126-0.364,0.22-0.739,0.285-1.12c0.066-0.386,0.1-0.783,0.1-1.191    c0-1.948-0.788-3.714-2.061-4.988c-1.278-1.274-3.035-2.063-4.981-2.063c-1.945,0-3.702,0.789-4.981,2.063    c-1.272,1.274-2.061,3.04-2.061,4.988c0,0.408,0.034,0.806,0.1,1.191c0.065,0.381,0.16,0.756,0.286,1.12L187.541,195.196z     M187.541,176.022c1.235,0,2.347,0.502,3.152,1.313c0.81,0.806,1.312,1.921,1.312,3.156c0,0.254-0.022,0.503-0.066,0.75    c-0.044,0.249-0.105,0.491-0.188,0.728c-0.309,0.883-0.887,1.639-1.636,2.168c-0.729,0.514-1.615,0.817-2.574,0.817    s-1.846-0.303-2.573-0.817c-0.749-0.529-1.322-1.285-1.631-2.168l-0.006,0.006c-0.083-0.238-0.143-0.48-0.187-0.734    c-0.044-0.248-0.066-0.497-0.066-0.75c0-1.235,0.501-2.35,1.312-3.156C185.194,176.524,186.306,176.022,187.541,176.022z     M190.009,178.02c-0.634-0.629-1.504-1.021-2.468-1.021c-0.964,0-1.834,0.391-2.469,1.021c-0.628,0.634-1.02,1.507-1.02,2.472    c0,0.204,0.018,0.403,0.05,0.591c0.033,0.193,0.083,0.386,0.143,0.568c0.243,0.69,0.694,1.28,1.278,1.694    c0.567,0.403,1.262,0.64,2.017,0.64c0.754,0,1.449-0.237,2.017-0.64c0.584-0.414,1.036-1.004,1.278-1.694    c0.061-0.183,0.109-0.37,0.144-0.568c0.032-0.188,0.049-0.387,0.049-0.591C191.029,179.526,190.637,178.654,190.009,178.02z     M195.073,183.134l-7.103,13.314c-0.043,0.089-0.11,0.16-0.204,0.205c-0.231,0.127-0.529,0.038-0.656-0.199l-7.085-13.286    c-0.016-0.034-0.033-0.061-0.043-0.1c-0.149-0.419-0.265-0.86-0.342-1.308c-0.072-0.447-0.115-0.894-0.115-1.352    c0-2.218,0.897-4.221,2.353-5.678c1.449-1.451,3.45-2.35,5.664-2.35c2.215,0,4.214,0.899,5.665,2.35    c1.454,1.457,2.353,3.46,2.353,5.678c0,0.458-0.045,0.905-0.116,1.352c-0.077,0.447-0.192,0.889-0.341,1.308    C195.095,183.09,195.084,183.113,195.073,183.134z"/>
	</g>
</g>
</svg>