<?xml version="1.0" encoding="utf-8"?>
<!-- Generator: Adobe Illustrator 16.0.2, SVG Export Plug-In . SVG Version: 6.00 Build 0)  -->
<!DOCTYPE svg PUBLIC "-//W3C//DTD SVG 1.1//EN" "http://www.w3.org/Graphics/SVG/1.1/DTD/svg11.dtd">
<svg version="1.1" id="Capa_1" xmlns="http://www.w3.org/2000/svg" xmlns:xlink="http://www.w3.org/1999/xlink" x="0px" y="0px"
	 width="16px" height="11.25px" viewBox="298 390.375 16 11.25" enable-background="new 298 390.375 16 11.25" xml:space="preserve"
	>
<g>
	<g>
		<path fill="#FFFFFF" d="M312.594,390.375h-13.188c-0.774,0-1.406,0.63-1.406,1.406v8.438c0,0.777,0.633,1.406,1.406,1.406h13.188
			c0.773,0,1.406-0.63,1.406-1.406v-8.438C314,391.004,313.367,390.375,312.594,390.375z M312.378,391.313
			c-0.455,0.456-5.795,5.814-6.015,6.034c-0.183,0.184-0.543,0.184-0.727,0l-6.015-6.034H312.378z M298.938,400.047v-8.093
			l4.033,4.046L298.938,400.047z M299.622,400.688l4.011-4.023l1.34,1.345c0.549,0.551,1.505,0.551,2.055,0l1.34-1.345l4.011,4.023
			H299.622z M313.063,400.047L309.029,396l4.033-4.046V400.047z"/>
	</g>
</g>
</svg>
