<?xml version="1.0" encoding="utf-8"?>
<!-- Generator: Adobe Illustrator 16.0.2, SVG Export Plug-In . SVG Version: 6.00 Build 0)  -->
<!DOCTYPE svg PUBLIC "-//W3C//DTD SVG 1.1//EN" "http://www.w3.org/Graphics/SVG/1.1/DTD/svg11.dtd">
<svg version="1.1" id="Capa_1" xmlns="http://www.w3.org/2000/svg" xmlns:xlink="http://www.w3.org/1999/xlink" x="0px" y="0px"
	 width="32px" height="32px" viewBox="290 380 32 32" enable-background="new 290 380 32 32" xml:space="preserve">
<g>
	<g>
		<g>
			<path fill="#FFFFFF" d="M304.545,392.364v1.455h-1.455V396h1.455v6.546h2.909V396h1.935l0.248-2.182h-2.183v-1.273
				c0-0.589,0.059-0.902,0.968-0.902h1.215v-2.189h-1.949C305.36,389.455,304.545,390.545,304.545,392.364z"/>
			<path fill="#FFFFFF" d="M306,380c-8.836,0-16,7.164-16,16c0,8.837,7.164,16,16,16c8.837,0,16-7.163,16-16
				C322,387.164,314.837,380,306,380z M306,410.546c-8.033,0-14.545-6.513-14.545-14.546s6.512-14.545,14.545-14.545
				s14.546,6.512,14.546,14.545S314.033,410.546,306,410.546z"/>
		</g>
	</g>
</g>
</svg>
