<?xml version="1.0" encoding="UTF-8"?>
<!-- Generator: Adobe Illustrator 16.0.2, SVG Export Plug-In . SVG Version: 6.00 Build 0)  -->
<!DOCTYPE svg PUBLIC "-//W3C//DTD SVG 1.1//EN" "http://www.w3.org/Graphics/SVG/1.1/DTD/svg11.dtd">
<svg version="1.1" id="Layer_1" xmlns="http://www.w3.org/2000/svg" xmlns:xlink="http://www.w3.org/1999/xlink" x="0px" y="0px" width="64.079px" height="64px" viewBox="154.993 156.716 64.079 64" enable-background="new 154.993 156.716 64.079 64" xml:space="preserve">
<linearGradient id="SVGID_1_" gradientUnits="userSpaceOnUse" x1="178.571" y1="183.7031" x2="195.51" y2="183.7031">
	<stop offset="0" style="stop-color:#234930"/>
	<stop offset="1" style="stop-color:#83B645"/>
</linearGradient>
<path fill="url(#SVGID_1_)" d="M184.769,173.887l2.265-2.27l2.265,2.27c1.853,1.852,3.138,4.171,3.708,6.712  c1.085,4.686-0.3,9.516-3.708,12.925l-1.197,1.196v-5.432l3.843-2.883c0.475-0.354,0.57-1.022,0.217-1.498  c-0.355-0.471-1.022-0.567-1.494-0.213l-2.565,1.924v-4.769l2.729-1.819c0.492-0.325,0.625-0.989,0.296-1.481  c-0.325-0.492-0.989-0.625-1.481-0.296l-1.543,1.03v-3.345c0-0.589-0.48-1.068-1.068-1.068c-0.589,0-1.068,0.479-1.068,1.068v3.345  l-1.543-1.03c-0.493-0.33-1.155-0.196-1.481,0.296c-0.325,0.493-0.196,1.156,0.296,1.481l2.729,1.819v4.769l-2.562-1.924  c-0.476-0.354-1.144-0.255-1.498,0.213c-0.355,0.475-0.259,1.144,0.212,1.498l3.847,2.883v5.432l-1.197-1.196  C179.353,188.108,179.353,179.297,184.769,173.887z M187.034,198.367c0.275,0,0.546-0.104,0.755-0.313l3.02-3.021  c3.935-3.931,5.532-9.508,4.285-14.91c-0.663-2.929-2.145-5.611-4.285-7.748l-3.02-3.025c-0.417-0.417-1.093-0.417-1.51,0  l-3.021,3.025c-6.249,6.246-6.249,16.408,0,22.658l3.021,3.021C186.488,198.263,186.759,198.367,187.034,198.367"/>
<linearGradient id="SVGID_2_" gradientUnits="userSpaceOnUse" x1="192.3743" y1="188.1455" x2="206.4084" y2="188.1455">
	<stop offset="0" style="stop-color:#234930"/>
	<stop offset="1" style="stop-color:#83B645"/>
</linearGradient>
<path fill="url(#SVGID_2_)" d="M196.992,188.685c-0.084-0.584-0.631-0.993-1.211-0.905c-0.583,0.083-0.988,0.621-0.904,1.205  l0.271,1.895l-2.461,2.461c-0.417,0.417-0.417,1.093,0,1.51c0.209,0.209,0.479,0.313,0.755,0.313s0.547-0.104,0.755-0.313  l2.462-2.461l4.756,0.681c0.051,0.008,0.1,0.013,0.149,0.013c0.526,0,0.985-0.384,1.061-0.918c0.083-0.584-0.326-1.123-0.909-1.21  l-3.171-0.451l3.37-3.371l3.218,0.642c0.07,0.013,0.142,0.021,0.212,0.021c0.497,0,0.942-0.351,1.043-0.859  c0.117-0.58-0.258-1.144-0.834-1.256l-1.819-0.362l2.361-2.366c0.418-0.417,0.418-1.093,0-1.51c-0.412-0.417-1.089-0.417-1.51,0  l-2.365,2.366l-0.363-1.823c-0.113-0.576-0.672-0.951-1.256-0.834c-0.58,0.113-0.955,0.675-0.839,1.255l0.646,3.217l-3.375,3.371  L196.992,188.685"/>
<linearGradient id="SVGID_3_" gradientUnits="userSpaceOnUse" x1="190.2375" y1="187.687" x2="210.5295" y2="187.687">
	<stop offset="0" style="stop-color:#234930"/>
	<stop offset="1" style="stop-color:#83B645"/>
</linearGradient>
<path fill="url(#SVGID_3_)" d="M210.53,182.348v-4.272c0-0.589-0.479-1.069-1.067-1.069h-4.271c-3.021,0-5.962,0.847-8.508,2.45  c-0.496,0.317-0.646,0.975-0.334,1.472c0.317,0.5,0.977,0.651,1.474,0.334c2.202-1.385,4.751-2.12,7.368-2.12h3.203v3.205  c0,7.655-6.229,13.884-13.885,13.884h-3.203c-0.588,0-1.068,0.48-1.068,1.068s0.48,1.067,1.068,1.067h3.203  C203.346,198.367,210.53,191.18,210.53,182.348"/>
<linearGradient id="SVGID_4_" gradientUnits="userSpaceOnUse" x1="167.6589" y1="188.1455" x2="181.6941" y2="188.1455">
	<stop offset="0" style="stop-color:#234930"/>
	<stop offset="1" style="stop-color:#83B645"/>
</linearGradient>
<path fill="url(#SVGID_4_)" d="M178.285,187.779c-0.583-0.084-1.126,0.321-1.209,0.905l-0.042,0.309l-3.372-3.371l0.643-3.217  c0.117-0.58-0.259-1.143-0.839-1.255c-0.58-0.117-1.144,0.258-1.255,0.834l-0.363,1.819l-2.365-2.362  c-0.417-0.417-1.093-0.417-1.51,0c-0.417,0.417-0.417,1.094,0,1.51l2.361,2.366l-1.819,0.362c-0.575,0.113-0.951,0.676-0.834,1.256  c0.1,0.508,0.546,0.859,1.043,0.859c0.071,0,0.142-0.008,0.213-0.021l3.216-0.642l3.371,3.371l-3.17,0.451  c-0.584,0.087-0.994,0.626-0.91,1.21c0.08,0.534,0.534,0.918,1.055,0.918c0.054,0,0.104-0.005,0.154-0.013l4.756-0.681l2.462,2.461  c0.208,0.209,0.479,0.313,0.755,0.313s0.546-0.104,0.755-0.313c0.417-0.417,0.417-1.093,0-1.51l-2.462-2.461l0.272-1.895  C179.274,188.4,178.869,187.862,178.285,187.779"/>
<linearGradient id="SVGID_5_" gradientUnits="userSpaceOnUse" x1="163.5369" y1="187.687" x2="183.8293" y2="187.687">
	<stop offset="0" style="stop-color:#234930"/>
	<stop offset="1" style="stop-color:#83B645"/>
</linearGradient>
<path fill="url(#SVGID_5_)" d="M177.385,179.457c-2.545-1.603-5.487-2.45-8.507-2.45h-4.272c-0.588,0-1.068,0.48-1.068,1.069v4.272  c0,8.832,7.188,16.02,16.021,16.02h3.205c0.588,0,1.067-0.479,1.067-1.067s-0.479-1.068-1.067-1.068h-3.205  c-7.655,0-13.884-6.229-13.884-13.884v-3.205h3.204c2.616,0,5.166,0.734,7.367,2.12c0.497,0.313,1.156,0.166,1.473-0.334  C178.031,180.432,177.88,179.773,177.385,179.457"/>
<g>
	<g>
		<linearGradient id="SVGID_6_" gradientUnits="userSpaceOnUse" x1="154.9929" y1="188.7158" x2="219.0715" y2="188.7158">
			<stop offset="0" style="stop-color:#234930"/>
			<stop offset="1" style="stop-color:#83B645"/>
		</linearGradient>
		<path fill="url(#SVGID_6_)" d="M212.979,208.994l-2.266,2.265l-4.53-4.531l2.266-2.265c1.247-1.248,3.279-1.248,4.53,0    c0.604,0.604,0.938,1.409,0.938,2.265S213.583,208.389,212.979,208.994z M209.203,215.789l-7.552-7.552l1.511-1.51l7.551,7.552    L209.203,215.789z M219.049,187.545c-0.592-16.196-13.713-29.708-29.866-30.759c-9-0.58-17.523,2.461-24.052,8.581    c-6.446,6.037-10.138,14.561-10.138,23.389c0,16.708,13.037,30.742,29.679,31.952c0.08,0.008,0.154,0.008,0.229,0.008    c0.801,0,1.582-0.305,2.174-0.854c0.651-0.604,1.026-1.465,1.026-2.354v-17.005c0-0.588-0.48-1.067-1.068-1.067    c-0.589,0-1.068,0.479-1.068,1.067v17.005c0,0.301-0.121,0.584-0.346,0.789c-0.217,0.204-0.497,0.309-0.789,0.283    c-15.532-1.13-27.702-14.23-27.702-29.824c0-8.361,3.359-16.113,9.462-21.828c6.095-5.712,14.076-8.557,22.449-8.01    c15.077,0.981,27.322,13.593,27.877,28.707c0.188,5.127-0.938,10.167-3.233,14.673c-2.074-1.394-4.919-1.177-6.746,0.654    l-2.265,2.266l-0.755-0.755c-0.401-0.4-1.11-0.4-1.511,0l-3.021,3.02c-0.418,0.418-0.418,1.094,0,1.512l1.51,1.51l-3.021,3.021    c-0.417,0.417-0.417,1.093,0,1.51c0.204,0.209,0.479,0.313,0.752,0.313c0.274,0,0.546-0.104,0.759-0.313l3.021-3.021l3.021,3.021    l-3.021,3.021c-0.417,0.417-0.417,1.094,0,1.511c0.208,0.209,0.479,0.313,0.755,0.313c0.271,0,0.547-0.104,0.756-0.313l3.02-3.021    l1.511,1.511c0.2,0.2,0.471,0.313,0.755,0.313c0.283,0,0.555-0.113,0.755-0.313l3.021-3.021c0.418-0.417,0.418-1.093,0-1.51    l-0.755-0.756l2.266-2.265c1.01-1.01,1.564-2.35,1.564-3.776c0-1.01-0.292-1.969-0.81-2.804    C217.935,198.931,219.262,193.286,219.049,187.545"/>
	</g>
</g>
</svg>