<?xml version="1.0" encoding="utf-8"?>
<!-- Generator: Adobe Illustrator 16.0.2, SVG Export Plug-In . SVG Version: 6.00 Build 0)  -->
<!DOCTYPE svg PUBLIC "-//W3C//DTD SVG 1.1//EN" "http://www.w3.org/Graphics/SVG/1.1/DTD/svg11.dtd">
<svg version="1.1" id="Capa_1" xmlns="http://www.w3.org/2000/svg" xmlns:xlink="http://www.w3.org/1999/xlink" x="0px" y="0px"
	 width="32px" height="32px" viewBox="290 380 32 32" enable-background="new 290 380 32 32" xml:space="preserve">
<g>
	<g>
		<g>
			<path fill="#FFFFFF" d="M306,380c-8.836,0-16,7.164-16,16c0,8.837,7.164,16,16,16c8.837,0,16-7.163,16-16
				C322,387.164,314.837,380,306,380z M306,410.546c-8.033,0-14.545-6.513-14.545-14.546s6.512-14.545,14.545-14.545
				s14.546,6.512,14.546,14.545S314.033,410.546,306,410.546z"/>
			<path fill="#FFFFFF" d="M310.363,388.727h-8.727c-1.606,0-2.909,1.303-2.909,2.909v8.727c0,1.606,1.302,2.909,2.909,2.909h8.727
				c1.607,0,2.909-1.303,2.909-2.909v-8.727C313.272,390.03,311.971,388.727,310.363,388.727z M308.909,390.909h2.182v2.182h-2.182
				V390.909z M306,393.091c1.606,0,2.909,1.303,2.909,2.909s-1.303,2.909-2.909,2.909s-2.909-1.303-2.909-2.909
				S304.394,393.091,306,393.091z M311.818,400.363c0,0.804-0.651,1.455-1.455,1.455h-8.727c-0.803,0-1.455-0.651-1.455-1.455
				v-5.091h1.527c-0.437,2.37,1.13,4.646,3.5,5.082c2.371,0.438,4.646-1.13,5.083-3.5c0.052-0.282,0.076-0.568,0.071-0.854
				c-0.003-0.244-0.027-0.487-0.072-0.727h1.527V400.363L311.818,400.363z"/>
		</g>
	</g>
</g>
</svg>
