<?xml version="1.0" encoding="utf-8"?>
<!-- Generator: Adobe Illustrator 16.0.2, SVG Export Plug-In . SVG Version: 6.00 Build 0)  -->
<!DOCTYPE svg PUBLIC "-//W3C//DTD SVG 1.1//EN" "http://www.w3.org/Graphics/SVG/1.1/DTD/svg11.dtd">
<svg version="1.1" id="Capa_1" xmlns="http://www.w3.org/2000/svg" xmlns:xlink="http://www.w3.org/1999/xlink" x="0px" y="0px"
	 width="32px" height="32px" viewBox="290 380 32 32" enable-background="new 290 380 32 32" xml:space="preserve">
<g>
	<g>
		<g>
			<circle fill="#FFFFFF" cx="301.636" cy="391.636" r="1.455"/>
			<rect x="300.182" y="393.818" fill="#FFFFFF" width="2.909" height="8"/>
			<path fill="#FFFFFF" d="M306,380c-8.836,0-16,7.164-16,16c0,8.837,7.164,16,16,16c8.837,0,16-7.163,16-16
				C322,387.164,314.837,380,306,380z M306,410.546c-8.033,0-14.545-6.513-14.545-14.546s6.512-14.545,14.545-14.545
				s14.546,6.512,14.546,14.545S314.033,410.546,306,410.546z"/>
			<path fill="#FFFFFF" d="M309.898,393.818c-2.182,0-2.444,1.294-2.444,1.294v-1.294h-2.909v8h2.909v-4.364
				c0,0,0-1.454,1.237-1.454c0.727,0,0.945,0.647,0.945,1.454v4.364h2.909v-4.364C312.546,395.178,311.557,393.818,309.898,393.818z
				"/>
		</g>
	</g>
</g>
</svg>
