<?xml version="1.0" encoding="utf-8"?>
<!-- Generator: Adobe Illustrator 16.0.2, SVG Export Plug-In . SVG Version: 6.00 Build 0)  -->
<!DOCTYPE svg PUBLIC "-//W3C//DTD SVG 1.1//EN" "http://www.w3.org/Graphics/SVG/1.1/DTD/svg11.dtd">
<svg version="1.1" id="Capa_1" xmlns="http://www.w3.org/2000/svg" xmlns:xlink="http://www.w3.org/1999/xlink" x="0px" y="0px"
	 width="16px" height="22.756px" viewBox="248 244.622 16 22.756" enable-background="new 248 244.622 16 22.756"
	 xml:space="preserve">
<g>
	<path fill="#FFFFFF" d="M255.445,267.081c0.124,0.186,0.332,0.297,0.555,0.297c0.223,0,0.431-0.111,0.555-0.297
		c1.578-2.366,3.901-5.289,5.521-8.262c1.294-2.377,1.924-4.404,1.924-6.197c0-4.411-3.589-8-8-8s-8,3.589-8,8
		c0,1.793,0.629,3.82,1.924,6.197C251.542,261.789,253.871,264.719,255.445,267.081z M256,245.956c3.676,0,6.667,2.991,6.667,6.667
		c0,1.565-0.576,3.383-1.762,5.56c-1.396,2.562-3.389,5.161-4.905,7.346c-1.517-2.185-3.509-4.784-4.905-7.346
		c-1.186-2.176-1.762-3.995-1.762-5.56C249.333,248.946,252.324,245.956,256,245.956z"/>
	<path fill="#FFFFFF" d="M256,256.622c2.206,0,4-1.794,4-4s-1.794-4-4-4c-2.206,0-4,1.794-4,4S253.794,256.622,256,256.622z
		 M256,249.956c1.471,0,2.667,1.196,2.667,2.667c0,1.471-1.196,2.667-2.667,2.667c-1.47,0-2.667-1.196-2.667-2.667
		C253.333,251.152,254.53,249.956,256,249.956z"/>
</g>
</svg>
