<?xml version="1.0" encoding="UTF-8"?>
<!-- Generator: Adobe Illustrator 16.0.2, SVG Export Plug-In . SVG Version: 6.00 Build 0)  -->
<!DOCTYPE svg PUBLIC "-//W3C//DTD SVG 1.1//EN" "http://www.w3.org/Graphics/SVG/1.1/DTD/svg11.dtd">
<svg version="1.1" id="Layer_1" xmlns="http://www.w3.org/2000/svg" xmlns:xlink="http://www.w3.org/1999/xlink" x="0px" y="0px" width="64px" height="64px" viewBox="149.5 155.332 64 64" enable-background="new 149.5 155.332 64 64" xml:space="preserve">
<g>
	<g>
		<linearGradient id="SVGID_1_" gradientUnits="userSpaceOnUse" x1="149.5002" y1="187.332" x2="213.5002" y2="187.332">
			<stop offset="0" style="stop-color:#234930"/>
			<stop offset="1" style="stop-color:#83B645"/>
		</linearGradient>
		<path fill="url(#SVGID_1_)" d="M181.5,155.332c-17.674,0-32,14.327-32,32c0,17.672,14.328,32,31.999,32c0,0-0.001,0,0.001,0    c17.672,0,32-14.328,32-32C213.5,169.659,199.172,155.332,181.5,155.332z M207.549,200.832l-2.049-1.184l3.467-2    c-0.139,0.367-0.283,0.736-0.438,1.102C208.229,199.46,207.903,200.152,207.549,200.832z M210.094,193.918l-7.262,4.191    l-2.666-1.539l10.496-6.061C210.539,191.66,210.35,192.797,210.094,193.918z M210.258,181.507l-18.092,10.445l-2.666-1.542    l20.078-11.591C209.848,179.705,210.074,180.601,210.258,181.507z M210.684,184.34c0.098,0.989,0.148,1.987,0.148,2.992    l-13.332,7.699l-2.668-1.54L210.684,184.34z M208.672,176.264l-21.84,12.607l-2.666-1.539l23.383-13.5    c0.352,0.68,0.68,1.374,0.98,2.083C208.578,176.032,208.625,176.148,208.672,176.264z M182.832,181.944l21.836-12.606    c0.551,0.706,1.066,1.435,1.547,2.186l-23.382,13.5L182.832,181.944L182.832,181.944z M182.832,169.627l13.34-7.702    c0.865,0.5,1.703,1.044,2.512,1.63l-15.851,9.151L182.832,169.627L182.832,169.627z M182.832,158.03    c1.168,0.051,2.325,0.173,3.465,0.36l-3.465,1.999V158.03z M202.903,167.276l-20.07,11.588v-3.079l18.082-10.439    c0.453,0.4,0.896,0.814,1.328,1.244C202.467,166.815,202.688,167.045,202.903,167.276z M193.332,160.486l-10.5,6.062v-3.078    l7.262-4.193c0.953,0.293,1.896,0.635,2.824,1.027C193.057,160.362,193.196,160.424,193.332,160.486z M202.242,208.074    c-2.695,2.695-5.832,4.809-9.324,6.287c-3.617,1.529-7.457,2.303-11.419,2.303c-3.96,0-7.802-0.773-11.416-2.303    c-3.492-1.479-6.63-3.592-9.326-6.287c-2.694-2.695-4.81-5.832-6.287-9.325c-1.53-3.616-2.305-7.456-2.305-11.417    s0.775-7.802,2.305-11.417c1.477-3.492,3.592-6.63,6.287-9.326c2.694-2.694,5.833-4.809,9.325-6.287    c3.208-1.356,6.595-2.118,10.083-2.273v29.303c0,0.492,0.27,0.922,0.667,1.154l25.381,14.654    C205.08,204.914,203.752,206.563,202.242,208.074z"/>
	</g>
</g>
<g>
	<g>
		<linearGradient id="SVGID_2_" gradientUnits="userSpaceOnUse" x1="181.5955" y1="204.0039" x2="194.4797" y2="204.0039">
			<stop offset="0" style="stop-color:#234930"/>
			<stop offset="1" style="stop-color:#83B645"/>
		</linearGradient>
		<path fill="url(#SVGID_2_)" d="M182.192,210.45c-0.151,0-0.313-0.061-0.423-0.182c-0.232-0.231-0.232-0.614,0-0.856l11.68-11.68    c0.231-0.232,0.625-0.232,0.856,0c0.231,0.231,0.231,0.614,0,0.856l-11.681,11.68C182.505,210.39,182.354,210.45,182.192,210.45z"/>
	</g>
</g>
<g>
	<g>
		<linearGradient id="SVGID_3_" gradientUnits="userSpaceOnUse" x1="181.5881" y1="200.4336" x2="187.3318" y2="200.4336">
			<stop offset="0" style="stop-color:#234930"/>
			<stop offset="1" style="stop-color:#83B645"/>
		</linearGradient>
		<path fill="url(#SVGID_3_)" d="M184.459,203.305c-1.582,0-2.871-1.289-2.871-2.872c0-1.581,1.29-2.871,2.871-2.871    c1.583,0,2.873,1.29,2.873,2.871C187.332,202.016,186.052,203.305,184.459,203.305z M184.459,198.771    c-0.917,0-1.662,0.745-1.662,1.662c0,0.918,0.746,1.663,1.662,1.663c0.918,0,1.664-0.745,1.664-1.663    C186.123,199.516,185.377,198.771,184.459,198.771z"/>
	</g>
</g>
<g>
	<g>
		<linearGradient id="SVGID_4_" gradientUnits="userSpaceOnUse" x1="188.7424" y1="207.5781" x2="194.4875" y2="207.5781">
			<stop offset="0" style="stop-color:#234930"/>
			<stop offset="1" style="stop-color:#83B645"/>
		</linearGradient>
		<path fill="url(#SVGID_4_)" d="M191.615,210.45c-1.582,0-2.872-1.29-2.872-2.872s1.29-2.872,2.872-2.872    c1.583,0,2.873,1.279,2.873,2.862C194.488,209.149,193.198,210.45,191.615,210.45z M191.615,205.905    c-0.916,0-1.663,0.745-1.663,1.663c0,0.916,0.747,1.673,1.663,1.673c0.917,0,1.663-0.746,1.663-1.663    S192.531,205.905,191.615,205.905z"/>
	</g>
</g>
<g>
	<defs>
		<rect id="SVGID_5_" x="156.829" y="181.036" width="3.893" height="6.291"/>
	</defs>
	<linearGradient id="SVGID_6_" gradientUnits="userSpaceOnUse" x1="156.8293" y1="184.1816" x2="160.7224" y2="184.1816">
		<stop offset="0" style="stop-color:#234930"/>
		<stop offset="1" style="stop-color:#83B645"/>
	</linearGradient>
	<use xlink:href="#SVGID_5_" overflow="visible" fill="url(#SVGID_6_)"/>
	<clipPath id="SVGID_7_">
		<use xlink:href="#SVGID_5_" overflow="visible"/>
	</clipPath>
	<g clip-path="url(#SVGID_7_)">
		<linearGradient id="SVGID_8_" gradientUnits="userSpaceOnUse" x1="156.8293" y1="184.2832" x2="160.634" y2="184.2832">
			<stop offset="0" style="stop-color:#234930"/>
			<stop offset="1" style="stop-color:#83B645"/>
		</linearGradient>
		<path fill="url(#SVGID_8_)" d="M160.253,181.24h-3.043c-0.21,0-0.38,0.17-0.38,0.38v5.327c0,0.21,0.17,0.38,0.38,0.38h3.043    c0.21,0,0.381-0.17,0.381-0.38v-5.327C160.634,181.41,160.463,181.24,160.253,181.24z M159.873,186.566h-2.283V182h2.283V186.566z    "/>
	</g>
</g>
<g>
	<defs>
		<rect id="SVGID_9_" x="161.389" y="179.703" width="4" height="7.624"/>
	</defs>
	<linearGradient id="SVGID_10_" gradientUnits="userSpaceOnUse" x1="161.3889" y1="183.5146" x2="165.3889" y2="183.5146">
		<stop offset="0" style="stop-color:#234930"/>
		<stop offset="1" style="stop-color:#83B645"/>
	</linearGradient>
	<use xlink:href="#SVGID_9_" overflow="visible" fill="url(#SVGID_10_)"/>
	<clipPath id="SVGID_11_">
		<use xlink:href="#SVGID_9_" overflow="visible"/>
	</clipPath>
	<g clip-path="url(#SVGID_11_)">
		<linearGradient id="SVGID_12_" gradientUnits="userSpaceOnUse" x1="161.3943" y1="183.5225" x2="165.199" y2="183.5225">
			<stop offset="0" style="stop-color:#234930"/>
			<stop offset="1" style="stop-color:#83B645"/>
		</linearGradient>
		<path fill="url(#SVGID_12_)" d="M164.818,179.718h-3.043c-0.21,0-0.38,0.17-0.38,0.38v6.848c0,0.21,0.17,0.38,0.38,0.38h3.043    c0.21,0,0.381-0.17,0.381-0.38v-6.848C165.199,179.889,165.028,179.718,164.818,179.718z M164.438,186.566h-2.282v-6.088h2.282    V186.566z"/>
	</g>
</g>
<g>
	<defs>
		<rect id="SVGID_13_" x="165.834" y="177.258" width="4" height="10.068"/>
	</defs>
	<linearGradient id="SVGID_14_" gradientUnits="userSpaceOnUse" x1="165.8337" y1="182.2925" x2="169.8337" y2="182.2925">
		<stop offset="0" style="stop-color:#234930"/>
		<stop offset="1" style="stop-color:#83B645"/>
	</linearGradient>
	<use xlink:href="#SVGID_13_" overflow="visible" fill="url(#SVGID_14_)"/>
	<clipPath id="SVGID_15_">
		<use xlink:href="#SVGID_13_" overflow="visible"/>
	</clipPath>
	<g clip-path="url(#SVGID_15_)">
		<linearGradient id="SVGID_16_" gradientUnits="userSpaceOnUse" x1="165.9592" y1="182.3809" x2="169.7639" y2="182.3809">
			<stop offset="0" style="stop-color:#234930"/>
			<stop offset="1" style="stop-color:#83B645"/>
		</linearGradient>
		<path fill="url(#SVGID_16_)" d="M169.384,177.436h-3.044c-0.21,0-0.38,0.171-0.38,0.381v9.13c0,0.21,0.17,0.38,0.38,0.38h3.044    c0.21,0,0.38-0.17,0.38-0.38v-9.13C169.764,177.606,169.594,177.436,169.384,177.436z M169.003,186.566h-2.282v-8.37h2.282    V186.566z"/>
	</g>
</g>
<g>
	<defs>
		<rect id="SVGID_17_" x="170.5" y="174.369" width="3.829" height="12.958"/>
	</defs>
	<linearGradient id="SVGID_18_" gradientUnits="userSpaceOnUse" x1="170.5002" y1="180.8477" x2="174.3293" y2="180.8477">
		<stop offset="0" style="stop-color:#234930"/>
		<stop offset="1" style="stop-color:#83B645"/>
	</linearGradient>
	<use xlink:href="#SVGID_17_" overflow="visible" fill="url(#SVGID_18_)"/>
	<clipPath id="SVGID_19_">
		<use xlink:href="#SVGID_17_" overflow="visible"/>
	</clipPath>
	<g clip-path="url(#SVGID_19_)">
		<linearGradient id="SVGID_20_" gradientUnits="userSpaceOnUse" x1="170.5247" y1="180.8594" x2="174.3293" y2="180.8594">
			<stop offset="0" style="stop-color:#234930"/>
			<stop offset="1" style="stop-color:#83B645"/>
		</linearGradient>
		<path fill="url(#SVGID_20_)" d="M173.949,174.392h-3.043c-0.211,0-0.381,0.171-0.381,0.38v12.175c0,0.21,0.17,0.38,0.381,0.38    h3.043c0.21,0,0.38-0.17,0.38-0.38v-12.175C174.329,174.563,174.159,174.392,173.949,174.392z M173.568,186.566h-2.282v-11.413    h2.282V186.566z"/>
	</g>
</g>
<g>
	<g>
		<linearGradient id="SVGID_21_" gradientUnits="userSpaceOnUse" x1="156.8293" y1="174.0117" x2="171.9436" y2="174.0117">
			<stop offset="0" style="stop-color:#234930"/>
			<stop offset="1" style="stop-color:#83B645"/>
		</linearGradient>
		<path fill="url(#SVGID_21_)" d="M171.563,172.87c0.211,0,0.381-0.17,0.381-0.38v-2.283c0-0.008-0.004-0.014-0.005-0.021    c-0.001-0.026-0.008-0.051-0.016-0.077c-0.006-0.023-0.011-0.046-0.021-0.067c-0.01-0.021-0.024-0.038-0.038-0.056    c-0.017-0.022-0.032-0.042-0.052-0.061c-0.006-0.005-0.009-0.012-0.015-0.017c-0.012-0.01-0.028-0.013-0.041-0.021    c-0.023-0.014-0.045-0.027-0.071-0.036c-0.025-0.009-0.05-0.012-0.076-0.016c-0.016-0.002-0.03-0.01-0.047-0.01h-2.179    c-0.211,0-0.381,0.17-0.381,0.38s0.17,0.381,0.381,0.381h1.365c-2.345,2.669-7.537,6.848-13.54,6.848    c-0.21,0-0.38,0.171-0.38,0.381c0,0.209,0.17,0.38,0.38,0.38c6.15,0,11.468-4.173,13.973-6.951v1.244    C171.182,172.7,171.353,172.87,171.563,172.87z"/>
	</g>
</g>
<g>
	<g>
		<path fill="#FFFFFF" d="M175.996,205.836c0,0.396-0.019,0.79-0.058,1.185c-0.039,0.394-0.097,0.784-0.174,1.173    c-0.078,0.388-0.173,0.771-0.289,1.15c-0.114,0.379-0.247,0.75-0.399,1.117c-0.151,0.365-0.32,0.722-0.507,1.071    c-0.187,0.35-0.39,0.688-0.609,1.017c-0.219,0.329-0.456,0.646-0.707,0.952c-0.25,0.307-0.516,0.6-0.796,0.88    c-0.28,0.279-0.573,0.545-0.878,0.796c-0.307,0.251-0.624,0.486-0.953,0.706s-0.667,0.423-1.017,0.609    c-0.349,0.188-0.707,0.356-1.072,0.508c-0.366,0.151-0.738,0.284-1.117,0.398c-0.379,0.116-0.762,0.211-1.15,0.289    c-0.389,0.077-0.78,0.135-1.174,0.174c-0.393,0.038-0.788,0.059-1.184,0.059c-0.396,0-0.791-0.021-1.185-0.059    c-0.394-0.039-0.785-0.097-1.173-0.174c-0.388-0.078-0.771-0.173-1.15-0.289c-0.378-0.114-0.75-0.247-1.116-0.398    c-0.365-0.151-0.723-0.32-1.072-0.508c-0.349-0.187-0.688-0.39-1.018-0.609s-0.646-0.455-0.952-0.706    c-0.306-0.251-0.599-0.517-0.878-0.796c-0.28-0.28-0.545-0.573-0.796-0.88c-0.252-0.306-0.487-0.623-0.707-0.952    c-0.219-0.329-0.423-0.667-0.609-1.017c-0.187-0.35-0.355-0.706-0.508-1.071c-0.151-0.367-0.284-0.738-0.399-1.117    c-0.115-0.379-0.211-0.763-0.289-1.15c-0.077-0.389-0.134-0.779-0.173-1.173c-0.039-0.395-0.058-0.788-0.058-1.185    c0-0.396,0.019-0.79,0.058-1.185c0.039-0.394,0.096-0.784,0.173-1.173c0.078-0.388,0.174-0.771,0.289-1.15    c0.115-0.378,0.248-0.75,0.399-1.116c0.152-0.365,0.321-0.723,0.508-1.071c0.186-0.35,0.39-0.688,0.609-1.018    c0.22-0.329,0.455-0.646,0.707-0.952c0.25-0.306,0.516-0.6,0.796-0.879c0.279-0.28,0.573-0.545,0.878-0.797    c0.306-0.251,0.623-0.486,0.952-0.706s0.668-0.423,1.018-0.609c0.349-0.188,0.707-0.355,1.072-0.508    c0.366-0.15,0.738-0.284,1.116-0.398c0.379-0.115,0.762-0.211,1.15-0.289c0.388-0.077,0.779-0.135,1.173-0.173    c0.394-0.039,0.789-0.059,1.185-0.059c0.396,0,0.791,0.02,1.184,0.059c0.394,0.038,0.785,0.096,1.174,0.173    c0.388,0.078,0.771,0.174,1.15,0.289c0.379,0.114,0.751,0.248,1.117,0.398c0.365,0.152,0.723,0.32,1.072,0.508    c0.349,0.187,0.688,0.39,1.017,0.609s0.646,0.455,0.953,0.706c0.306,0.252,0.598,0.517,0.878,0.797    c0.28,0.279,0.545,0.573,0.796,0.879c0.251,0.306,0.487,0.623,0.707,0.952c0.22,0.329,0.423,0.668,0.609,1.018    c0.187,0.349,0.356,0.706,0.507,1.071c0.152,0.366,0.285,0.738,0.399,1.116c0.116,0.379,0.211,0.763,0.289,1.15    c0.077,0.389,0.135,0.779,0.174,1.173C175.977,205.046,175.996,205.44,175.996,205.836z"/>
	</g>
</g>
<linearGradient id="SVGID_22_" gradientUnits="userSpaceOnUse" x1="159.4509" y1="205.4141" x2="169.093" y2="205.4141">
	<stop offset="0" style="stop-color:#234930"/>
	<stop offset="1" style="stop-color:#83B645"/>
</linearGradient>
<path fill="url(#SVGID_22_)" d="M169.093,198.977v1.292h-2.841c0.036,0.037,0.072,0.075,0.106,0.115  c0.083,0.094,0.161,0.194,0.233,0.304h0c0.078,0.113,0.148,0.234,0.209,0.362c0.034,0.07,0.065,0.145,0.094,0.22h2.199v1.595h-2.004  c-0.028,0.246-0.078,0.481-0.151,0.705c-0.1,0.307-0.24,0.59-0.422,0.849c-0.177,0.254-0.39,0.486-0.636,0.697  c-0.245,0.209-0.522,0.396-0.83,0.561l-0.001,0.001c-0.303,0.159-0.632,0.3-0.987,0.418c-0.219,0.073-0.447,0.139-0.684,0.194  l0.317,0.422v0.001c0.116,0.155,0.24,0.317,0.374,0.489c0.124,0.158,0.266,0.338,0.425,0.536l0.001,0.002  c0.148,0.188,0.3,0.372,0.455,0.557c0.165,0.195,0.326,0.381,0.483,0.557l0.004,0.006c0.161,0.188,0.304,0.351,0.431,0.488  c0.129,0.141,0.254,0.271,0.377,0.39c0.114,0.112,0.226,0.214,0.333,0.306c0.108,0.092,0.212,0.173,0.31,0.242v0.001  c0.095,0.064,0.192,0.122,0.289,0.174c0.095,0.051,0.193,0.095,0.289,0.131l0.007,0.002c0.096,0.039,0.2,0.072,0.308,0.104  c0.107,0.028,0.225,0.055,0.352,0.08l0.262,0.052l-0.041,0.261l-0.124,0.804l-0.036,0.236l-0.239-0.002  c-0.333-0.001-0.638-0.009-0.916-0.021c-0.289-0.012-0.557-0.029-0.805-0.052h-0.003c-0.245-0.023-0.474-0.056-0.687-0.096  c-0.22-0.042-0.421-0.091-0.604-0.148c-0.185-0.059-0.365-0.13-0.54-0.216c-0.172-0.085-0.336-0.182-0.493-0.291  c-0.15-0.105-0.304-0.229-0.46-0.369c-0.148-0.134-0.296-0.282-0.442-0.444l0,0.001c-0.116-0.124-0.234-0.257-0.354-0.397  c-0.121-0.141-0.242-0.289-0.366-0.444c-0.116-0.143-0.239-0.297-0.374-0.469c-0.139-0.176-0.266-0.339-0.375-0.485  c-0.104-0.135-0.231-0.303-0.367-0.483c-0.272-0.359-0.314-0.416-0.349-0.462l-0.001-0.002c-0.131-0.178-0.235-0.317-0.318-0.429  c-0.127-0.17-0.214-0.287-0.282-0.376c-0.102-0.132-0.182-0.236-0.236-0.305c-0.063-0.079-0.121-0.15-0.175-0.213l-0.067-0.179  v-0.811l0.253-0.022c0.386-0.036,0.743-0.084,1.069-0.144c0.321-0.059,0.611-0.13,0.87-0.214c0.259-0.082,0.489-0.176,0.691-0.279  c0.195-0.099,0.365-0.209,0.51-0.33l0.001-0.001c0.145-0.12,0.27-0.247,0.372-0.383c0.103-0.134,0.184-0.276,0.245-0.426  c0.064-0.159,0.113-0.325,0.144-0.499c0.017-0.09,0.028-0.181,0.036-0.273h-4.48v-1.595h4.135l-0.01-0.015  c-0.078-0.116-0.17-0.223-0.276-0.317H163.3c-0.109-0.097-0.237-0.184-0.382-0.258c-0.149-0.077-0.316-0.142-0.501-0.193  l-0.004-0.001c-0.188-0.055-0.404-0.095-0.646-0.123c-0.242-0.028-0.511-0.042-0.805-0.042c-0.164,0-0.261,0-0.318,0.001  c-0.09,0.001-0.176,0.004-0.252,0.006c-0.065,0.002-0.128,0.004-0.196,0.007c-0.046,0.002-0.096,0.005-0.154,0.01h0  c-0.22,0.019-0.254,0.021-0.287,0.024h-0.001l-0.303,0.028v-1.697h9.642V198.977"/>
<g>
	<g>
		<linearGradient id="SVGID_23_" gradientUnits="userSpaceOnUse" x1="150.2903" y1="205.4141" x2="178.2537" y2="205.4141">
			<stop offset="0" style="stop-color:#234930"/>
			<stop offset="1" style="stop-color:#83B645"/>
		</linearGradient>
		<path fill="url(#SVGID_23_)" d="M178.254,205.414c0-3.843-1.565-7.321-4.095-9.84c-2.531-2.519-6.025-4.075-9.887-4.075    c-3.861,0-7.355,1.557-9.886,4.075c-2.53,2.519-4.095,5.997-4.095,9.84s1.565,7.32,4.095,9.839    c2.531,2.519,6.025,4.076,9.886,4.076c3.861,0,7.356-1.558,9.887-4.076C176.689,212.734,178.254,209.257,178.254,205.414z     M164.272,193.99c3.17,0,6.04,1.278,8.117,3.346c2.078,2.067,3.362,4.923,3.362,8.078s-1.285,6.011-3.362,8.078    c-2.077,2.067-4.947,3.346-8.117,3.346c-3.17,0-6.039-1.278-8.116-3.346s-3.362-4.923-3.362-8.078s1.285-6.011,3.362-8.078    S161.102,193.99,164.272,193.99"/>
	</g>
</g>
</svg>