<?xml version="1.0" encoding="utf-8"?>
<!-- Generator: Adobe Illustrator 16.0.2, SVG Export Plug-In . SVG Version: 6.00 Build 0)  -->
<!DOCTYPE svg PUBLIC "-//W3C//DTD SVG 1.1//EN" "http://www.w3.org/Graphics/SVG/1.1/DTD/svg11.dtd">
<svg version="1.1" id="Layer_1" xmlns="http://www.w3.org/2000/svg" xmlns:xlink="http://www.w3.org/1999/xlink" x="0px" y="0px"
	 width="18px" height="24px" viewBox="1231 1742 18 24" enable-background="new 1231 1742 18 24" xml:space="preserve">
<g id="Layer_x0020_1">
	<g id="_2626174479152">
		<g>
			<g>
				<path fill="#84B645" d="M1248.854,1747.146l-5-5c-0.094-0.094-0.221-0.146-0.354-0.146H1233c-1.104,0-2,0.897-2,2v20
					c0,1.104,0.896,2,2,2h14c1.104,0,2-0.896,2-2v-16.5C1249,1747.367,1248.947,1747.24,1248.854,1747.146z M1244,1743.707
					l3.293,3.293H1245c-0.551,0-1-0.449-1-1V1743.707z M1248,1764c0,0.552-0.448,1-1,1h-14c-0.551,0-1-0.448-1-1v-20
					c0-0.552,0.449-1,1-1h10v3c0,1.103,0.897,2,2,2h3V1764z"/>
				<path fill="#84B645" d="M1242.549,1756.678c-0.462-0.364-0.902-0.738-1.195-1.031c-0.381-0.381-0.72-0.75-1.015-1.102
					c0.46-1.421,0.661-2.154,0.661-2.545c0-1.66-0.6-2-1.5-2c-0.684,0-1.5,0.355-1.5,2.048c0,0.746,0.409,1.652,1.219,2.705
					c-0.198,0.604-0.431,1.303-0.693,2.089c-0.126,0.378-0.262,0.727-0.407,1.051c-0.118,0.052-0.231,0.105-0.342,0.16
					c-0.397,0.199-0.775,0.378-1.125,0.544c-1.597,0.756-2.651,1.255-2.651,2.243c0,0.717,0.779,1.16,1.5,1.16
					c0.93,0,2.333-1.242,3.359-3.334c1.064-0.419,2.388-0.73,3.432-0.926c0.837,0.645,1.762,1.26,2.209,1.26
					c1.24,0,1.5-0.717,1.5-1.318c0-1.182-1.351-1.182-2-1.182C1243.799,1756.5,1243.258,1756.56,1242.549,1756.678z M1235.5,1761
					c-0.286,0-0.479-0.135-0.5-0.16c0-0.355,1.057-0.855,2.08-1.34c0.065-0.031,0.131-0.063,0.198-0.094
					C1236.526,1760.495,1235.784,1761,1235.5,1761z M1239,1752.048c0-1.048,0.325-1.048,0.5-1.048c0.354,0,0.5,0,0.5,1
					c0,0.211-0.141,0.738-0.398,1.562C1239.21,1752.957,1239,1752.439,1239,1752.048L1239,1752.048z M1239.383,1757.422
					c0.032-0.087,0.062-0.175,0.09-0.264c0.186-0.557,0.354-1.057,0.502-1.507c0.208,0.229,0.431,0.463,0.67,0.702
					c0.094,0.094,0.326,0.305,0.636,0.569C1240.666,1757.057,1240.01,1757.223,1239.383,1757.422L1239.383,1757.422z M1245,1757.682
					c0,0.225,0,0.318-0.464,0.321c-0.136-0.029-0.451-0.215-0.84-0.479c0.142-0.016,0.245-0.023,0.304-0.023
					C1244.739,1757.5,1244.948,1757.572,1245,1757.682z"/>
			</g>
		</g>
	</g>
	<g id="_2626174539088">
	</g>
	<g id="_2626174537008">
	</g>
	<g id="_2626174536272">
	</g>
	<g id="_2626174537392">
	</g>
	<g id="_2626174535440">
	</g>
	<g id="_2626174534448">
	</g>
	<g id="_2626174535952">
	</g>
	<g id="_2626174532912">
	</g>
	<g id="_2626174533712">
	</g>
	<g id="_2626174533264">
	</g>
	<g id="_2626174532944">
	</g>
	<g id="_2626174531184">
	</g>
	<g id="_2626174528464">
	</g>
	<g id="_2626174528816">
	</g>
	<g id="_2626174529680">
	</g>
</g>
</svg>
