<?xml version="1.0" encoding="utf-8"?>
<!-- Generator: Adobe Illustrator 16.0.2, SVG Export Plug-In . SVG Version: 6.00 Build 0)  -->
<!DOCTYPE svg PUBLIC "-//W3C//DTD SVG 1.1//EN" "http://www.w3.org/Graphics/SVG/1.1/DTD/svg11.dtd">
<svg version="1.1" id="Layer_1" xmlns="http://www.w3.org/2000/svg" xmlns:xlink="http://www.w3.org/1999/xlink" x="0px" y="0px"
	 width="16px" height="16px" viewBox="248 248 16 16" enable-background="new 248 248 16 16" xml:space="preserve">
<path fill="#FFFFFF" d="M259.515,264c-2.805,0-5.8-1.03-8.142-3.372c-2.338-2.339-3.373-5.332-3.373-8.143
	c0-2.477,2.004-4.485,4.485-4.485c0.192,0,0.364,0.117,0.435,0.294l2.009,5.021c0.096,0.24-0.021,0.513-0.261,0.609l-2.206,0.882
	c0.156,2.539,2.193,4.576,4.73,4.731l0.883-2.206c0.096-0.24,0.368-0.357,0.609-0.261l5.021,2.008
	c0.178,0.071,0.295,0.244,0.295,0.436C264,261.992,261.996,264,259.515,264L259.515,264z M252.173,248.951
	c-1.795,0.155-3.236,1.661-3.236,3.534c0,2.825,1.1,5.481,3.098,7.479c1.998,1.997,4.654,3.098,7.479,3.098
	c1.873,0,3.379-1.439,3.534-3.236l-4.277-1.711l-0.83,2.075c-0.071,0.179-0.243,0.295-0.436,0.295c-3.304,0-5.991-2.688-5.991-5.991
	c0-0.191,0.117-0.364,0.294-0.436l2.075-0.83L252.173,248.951z"/>
</svg>
