<?xml version="1.0" standalone="no"?>
<!DOCTYPE svg PUBLIC "-//W3C//DTD SVG 20010904//EN"
 "http://www.w3.org/TR/2001/REC-SVG-20010904/DTD/svg10.dtd">
<svg version="1.0" xmlns="http://www.w3.org/2000/svg"
 width="454.000000pt" height="454.000000pt" viewBox="0 0 454.000000 454.000000"
 preserveAspectRatio="xMidYMid meet">
<metadata>
Created by potrace 1.14, written by Peter Selinger 2001-2017
</metadata>
<g transform="translate(0.000000,454.000000) scale(0.100000,-0.100000)"
fill="#000000" stroke="none">
<path d="M2648 3965 c-2 -1 -34 -5 -72 -9 -38 -4 -72 -8 -76 -11 -4 -2 -22 -7
-41 -10 -56 -10 -176 -73 -220 -116 -72 -71 -102 -178 -65 -234 17 -25 16 -27
-22 -73 -22 -26 -51 -69 -65 -97 -17 -32 -26 -43 -27 -30 0 32 -55 137 -90
173 -17 18 -29 39 -27 47 10 24 -13 84 -44 120 -68 77 -208 112 -364 90 -27
-4 -51 -8 -52 -9 -2 -1 17 -17 41 -35 27 -20 61 -62 91 -112 62 -105 103 -133
197 -133 60 0 70 2 97 28 l29 28 21 -41 c55 -108 59 -224 15 -469 -37 -209
-39 -223 -39 -362 0 -119 5 -177 20 -245 l7 -30 -22 30 c-33 46 -95 173 -119
244 -46 135 -63 235 -66 395 l-2 118 35 35 c32 32 34 38 28 80 -6 43 -27 83
-69 131 -11 12 -23 22 -27 22 -4 0 -6 -10 -5 -22 1 -13 -6 -45 -16 -72 -22
-59 -16 -98 21 -133 27 -25 27 -26 13 -72 -17 -54 -24 -206 -11 -240 8 -23 8
-23 -14 -7 -108 78 -179 106 -268 106 -43 0 -59 4 -64 16 -3 8 -27 24 -52 36
-100 44 -221 3 -340 -116 -39 -39 -79 -86 -88 -104 -17 -34 -17 -34 4 -27 44
14 106 12 180 -6 137 -33 205 -18 273 61 34 40 40 55 40 103 0 9 5 17 11 17
30 0 136 -33 180 -56 101 -53 137 -112 189 -315 20 -75 47 -159 61 -187 14
-28 26 -54 26 -58 0 -15 -168 5 -225 27 -67 25 -161 110 -184 168 -13 30 -12
34 11 59 34 36 41 72 23 121 -8 23 -15 57 -17 76 -1 19 -5 35 -8 35 -12 0 -69
-66 -89 -105 -36 -68 -22 -136 30 -154 16 -5 29 -17 29 -26 0 -32 52 -116 101
-165 28 -27 45 -50 37 -51 -44 -2 -163 -44 -174 -60 -3 -5 -18 4 -34 21 -22
24 -36 30 -68 30 -56 0 -86 -13 -130 -58 -46 -47 -77 -109 -90 -183 -12 -63
-8 -247 5 -260 5 -5 21 6 39 30 29 39 75 74 166 125 80 45 123 124 116 211 -4
52 2 56 123 85 179 42 317 6 434 -114 186 -192 331 -453 381 -686 13 -63 13
-65 -9 -82 -12 -10 -38 -30 -58 -45 -181 -140 -206 -423 -53 -601 158 -185
441 -195 615 -22 94 93 132 195 124 329 -10 162 -111 297 -270 362 -37 16 -40
19 -57 90 -22 88 -101 254 -154 323 -90 118 -102 227 -39 347 33 64 86 112
162 150 105 50 197 41 318 -32 l55 -33 -21 -22 c-44 -47 -57 -160 -26 -221 16
-29 32 -48 114 -125 27 -26 60 -69 73 -95 l23 -47 17 39 c95 225 29 475 -128
481 -38 2 -50 8 -93 52 -27 27 -62 55 -79 62 -16 7 -30 15 -30 19 1 3 24 17
51 30 55 25 102 85 115 144 3 17 16 43 27 58 14 20 18 35 13 54 -8 32 -45 85
-60 85 -5 0 -7 -2 -4 -6 3 -3 -1 -26 -8 -51 -18 -58 -18 -55 5 -80 18 -19 18
-23 5 -49 -42 -81 -128 -133 -244 -149 -30 -4 -92 -20 -137 -36 -45 -16 -84
-29 -88 -29 -10 0 3 101 21 162 49 165 184 324 354 417 l53 29 31 -41 c41 -54
108 -88 174 -89 41 0 73 10 149 45 101 47 147 60 198 59 l30 -1 -40 35 c-163
140 -335 191 -451 133 -52 -26 -84 -62 -87 -97 -1 -16 -13 -26 -47 -39 -101
-38 -181 -92 -267 -181 l-53 -53 -1 33 c-6 160 1 228 37 348 4 14 20 47 36 74
16 27 27 51 24 54 -10 10 -66 -62 -98 -125 -17 -35 -32 -63 -35 -63 -4 0 -19
38 -22 55 -1 6 -12 20 -24 33 -14 15 -21 37 -22 68 -2 58 -40 99 -109 119 -54
16 -146 20 -146 7 0 -5 10 -17 21 -28 12 -10 31 -39 43 -64 36 -75 97 -103
167 -75 12 5 20 -9 37 -67 50 -178 55 -363 11 -493 l-23 -70 -12 70 c-7 39
-22 95 -33 125 -22 58 -89 157 -135 199 -14 14 -26 33 -26 43 0 48 -42 81
-116 90 -47 6 -76 -4 -52 -18 9 -5 22 -23 31 -39 23 -46 52 -67 94 -68 36 -2
40 -6 70 -62 128 -238 132 -486 11 -723 l-42 -83 -18 23 c-45 59 -163 321
-183 408 -1 3 -5 23 -10 45 -4 22 -10 49 -13 60 -2 11 -6 85 -8 165 -4 215 27
349 131 568 51 106 56 113 77 105 13 -4 55 -8 93 -7 78 0 130 21 177 71 26 27
78 131 78 156 0 25 60 133 93 169 34 36 34 36 11 41 -13 2 -25 3 -26 2z"/>
<path d="M2782 3487 c-28 -5 -56 -21 -83 -47 -35 -33 -40 -43 -37 -76 2 -31 9
-42 36 -57 44 -26 106 -30 145 -11 18 9 55 40 83 68 63 64 79 76 99 76 34 0 2
18 -57 34 -82 20 -133 24 -186 13z"/>
<path d="M244 584 c3 -9 6 -18 6 -20 0 -2 965 -4 2145 -4 2138 0 2145 0 2145
20 0 20 -7 20 -2151 20 -1957 0 -2151 -1 -2145 -16z"/>
</g>
</svg>
