<?xml version="1.0" encoding="utf-8"?>
<!-- Generator: Adobe Illustrator 16.0.2, SVG Export Plug-In . SVG Version: 6.00 Build 0)  -->
<!DOCTYPE svg PUBLIC "-//W3C//DTD SVG 1.1//EN" "http://www.w3.org/Graphics/SVG/1.1/DTD/svg11.dtd">
<svg version="1.1" id="Capa_1" xmlns="http://www.w3.org/2000/svg" xmlns:xlink="http://www.w3.org/1999/xlink" x="0px" y="0px"
	 width="32px" height="32px" viewBox="290 380 32 32" enable-background="new 290 380 32 32" xml:space="preserve">
<g>
	<g>
		<g>
			<path fill="#FFFFFF" d="M313.6,390.4c-0.587,0.348-1.229,0.594-1.897,0.728c-0.569-0.597-1.358-0.933-2.183-0.931
				c-1.623-0.012-2.953,1.286-2.981,2.909c0.001,0.225,0.027,0.45,0.08,0.669c-2.391-0.113-4.625-1.227-6.153-3.069
				c-0.261,0.44-0.402,0.942-0.407,1.455c0,0.987,0.501,1.908,1.331,2.443c-0.474-0.015-0.938-0.143-1.353-0.371c0,0,0,0,0,0.036
				c-0.004,1.418,1,2.64,2.393,2.909c-0.439,0.117-0.899,0.135-1.346,0.052c0.402,1.201,1.519,2.018,2.786,2.036
				c-1.055,0.82-2.352,1.268-3.688,1.272c-0.243,0-0.486-0.015-0.727-0.044c1.369,0.866,2.955,1.325,4.575,1.324
				c4.618,0.084,8.431-3.592,8.515-8.209c0.001-0.049,0.002-0.098,0.002-0.147c0-0.126,0-0.252,0-0.378
				c0.569-0.417,1.062-0.932,1.454-1.52c-0.546,0.239-1.124,0.396-1.716,0.466C312.906,391.665,313.374,391.085,313.6,390.4z"/>
			<path fill="#FFFFFF" d="M306,380c-8.836,0-16,7.164-16,16c0,8.837,7.164,16,16,16c8.837,0,16-7.163,16-16
				C322,387.164,314.837,380,306,380z M306,410.546c-8.033,0-14.545-6.513-14.545-14.546s6.512-14.545,14.545-14.545
				s14.546,6.512,14.546,14.545S314.033,410.546,306,410.546z"/>
		</g>
	</g>
</g>
</svg>
