<?xml version="1.0" encoding="utf-8"?>
<!-- Generator: Adobe Illustrator 16.0.2, SVG Export Plug-In . SVG Version: 6.00 Build 0)  -->
<!DOCTYPE svg PUBLIC "-//W3C//DTD SVG 1.1//EN" "http://www.w3.org/Graphics/SVG/1.1/DTD/svg11.dtd">
<svg version="1.1" id="Layer_1" xmlns="http://www.w3.org/2000/svg" xmlns:xlink="http://www.w3.org/1999/xlink" x="0px" y="0px"
	 width="32px" height="32px" viewBox="240 240 32 32" enable-background="new 240 240 32 32" xml:space="preserve">
<path fill="#FFFFFF" d="M262.1,264.728h-12.198c-1.451-0.003-2.626-1.178-2.628-2.628v-12.198c0.002-1.451,1.178-2.626,2.628-2.628
	H262.1c1.45,0.002,2.625,1.178,2.628,2.628V262.1C264.725,263.55,263.55,264.725,262.1,264.728z M249.901,248.728
	c-0.648,0.001-1.173,0.526-1.174,1.174V262.1c0.001,0.647,0.526,1.173,1.174,1.173H262.1c0.647,0,1.173-0.525,1.174-1.173v-12.198
	c-0.001-0.648-0.526-1.173-1.174-1.174H249.901z"/>
<path fill="#FFFFFF" d="M252.739,260.273c-0.232-0.128-0.375-0.372-0.375-0.637v-7.273c0-0.401,0.326-0.727,0.728-0.727
	c0.136,0,0.27,0.038,0.385,0.11l5.818,3.636c0.341,0.213,0.444,0.662,0.231,1.002c-0.059,0.094-0.138,0.173-0.231,0.231
	l-5.818,3.636C253.253,260.394,252.97,260.401,252.739,260.273z M253.818,253.673v4.654l3.72-2.327L253.818,253.673z"/>
<g>
	<g>
		<g>
			<path fill="#FFFFFF" d="M256,240c-8.836,0-16,7.164-16,16c0,8.837,7.164,16,16,16c8.837,0,16-7.163,16-16
				C272,247.164,264.837,240,256,240z M256,270.546c-8.033,0-14.545-6.513-14.545-14.546s6.512-14.545,14.545-14.545
				s14.546,6.512,14.546,14.545S264.033,270.546,256,270.546z"/>
		</g>
	</g>
</g>
</svg>
